<svg width="360" height="360" viewBox="0 0 360 360" fill="none" xmlns="http://www.w3.org/2000/svg">
<rect width="360" height="360" rx="10" fill="#262135"/>
<rect width="360" height="360" rx="10" fill="url(#paint0_linear_2080_11)" fill-opacity="0.2"/>
<path d="M93.8054 150.294V151.334H75.0713V170.126H92.0708V171.167H75.0713V191H73.9148V150.294H93.8054ZM103.447 150.409V191H100.845V150.409H103.447ZM136.519 150.583V153.936H125.301V191H121.254V153.936H109.979V150.583H136.519ZM163.957 191L154.359 174.521H147.998V191H142.736V150.698H155.746C158.792 150.698 161.355 151.219 163.437 152.26C165.557 153.3 167.137 154.707 168.178 156.481C169.219 158.254 169.739 160.277 169.739 162.552C169.739 165.327 168.93 167.775 167.311 169.895C165.73 172.015 163.34 173.422 160.141 174.116L170.26 191H163.957ZM147.998 170.3H155.746C158.599 170.3 160.738 169.606 162.164 168.218C163.591 166.792 164.304 164.903 164.304 162.552C164.304 160.162 163.591 158.312 162.164 157.001C160.777 155.69 158.637 155.035 155.746 155.035H147.998V170.3ZM202.027 182.789H185.201L182.309 191H175.429L189.826 150.756H197.459L211.856 191H204.918L202.027 182.789ZM200.176 177.412L193.642 158.736L187.051 177.412H200.176ZM215.803 170.762C215.803 166.792 216.69 163.246 218.463 160.123C220.275 156.962 222.723 154.515 225.807 152.78C228.929 151.007 232.418 150.12 236.272 150.12C240.782 150.12 244.733 151.277 248.126 153.589C251.518 155.902 253.889 159.102 255.238 163.188H245.928C245.003 161.26 243.693 159.815 241.997 158.851C240.339 157.888 238.412 157.406 236.214 157.406C233.863 157.406 231.762 157.965 229.912 159.083C228.1 160.162 226.674 161.704 225.633 163.708C224.631 165.713 224.13 168.064 224.13 170.762C224.13 173.422 224.631 175.774 225.633 177.817C226.674 179.821 228.1 181.382 229.912 182.5C231.762 183.58 233.863 184.119 236.214 184.119C238.412 184.119 240.339 183.637 241.997 182.674C243.693 181.671 245.003 180.207 245.928 178.279H255.238C253.889 182.404 251.518 185.623 248.126 187.935C244.772 190.21 240.821 191.347 236.272 191.347C232.418 191.347 228.929 190.48 225.807 188.745C222.723 186.972 220.275 184.524 218.463 181.402C216.69 178.279 215.803 174.733 215.803 170.762ZM285.281 191L271.635 173.075V191H261.747V150.409H271.635V168.218L285.165 150.409H296.787L281.06 170.3L297.365 191H285.281Z" fill="white"/>
<defs>
<linearGradient id="paint0_linear_2080_11" x1="271.5" y1="277" x2="8.00002" y2="4" gradientUnits="userSpaceOnUse">
<stop stop-opacity="0"/>
<stop offset="1" stop-color="#4A3D53"/>
</linearGradient>
</defs>
</svg>
