<?xml version="1.0" encoding="UTF-8"?>
<svg id="Layer_2" data-name="Layer 2" xmlns="http://www.w3.org/2000/svg" xmlns:xlink="http://www.w3.org/1999/xlink" viewBox="0 0 157.4 157.4">
  <defs>
    <style>
      .cls-1 {
        fill: url(#Degradado_sin_nombre_16);
      }

      .cls-2 {
        fill: url(#Degradado_sin_nombre_18-2);
      }

      .cls-3 {
        fill: url(#Degradado_sin_nombre_16-3);
      }

      .cls-4 {
        fill: url(#radial-gradient);
      }

      .cls-5 {
        fill: url(#Degradado_sin_nombre_16-2);
      }

      .cls-6 {
        fill: url(#Degradado_sin_nombre_18);
      }
    </style>
    <radialGradient id="radial-gradient" cx="78.7" cy="78.7" fx="78.7" fy="78.7" r="78.7" gradientUnits="userSpaceOnUse">
      <stop offset="0" stop-color="#dbdbdb"/>
      <stop offset=".8" stop-color="#fff"/>
    </radialGradient>
    <linearGradient id="Degradado_sin_nombre_16" data-name="Degradado sin nombre 16" x1="31.27" y1="51.93" x2="106.99" y2="51.93" gradientUnits="userSpaceOnUse">
      <stop offset="0" stop-color="#28dcf9"/>
      <stop offset="1" stop-color="#468ff9"/>
    </linearGradient>
    <linearGradient id="Degradado_sin_nombre_16-2" data-name="Degradado sin nombre 16" x1="31.27" y1="118.17" x2="106.99" y2="118.17" xlink:href="#Degradado_sin_nombre_16"/>
    <linearGradient id="Degradado_sin_nombre_18" data-name="Degradado sin nombre 18" x1="34.32" y1="99.09" x2="126.13" y2="99.09" gradientUnits="userSpaceOnUse">
      <stop offset="0" stop-color="#468ff9"/>
      <stop offset="1" stop-color="#28dcf9"/>
    </linearGradient>
    <linearGradient id="Degradado_sin_nombre_18-2" data-name="Degradado sin nombre 18" x1="-92.1" y1="79.98" x2="155.05" y2="79.98" xlink:href="#Degradado_sin_nombre_18"/>
    <linearGradient id="Degradado_sin_nombre_16-3" data-name="Degradado sin nombre 16" x1="31.27" y1="59.82" x2="106.99" y2="59.82" xlink:href="#Degradado_sin_nombre_16"/>
  </defs>
  <g id="OBJECTS">
    <g>
      <rect class="cls-4" width="157.4" height="157.4"/>
      <g>
        <path class="cls-1" d="M79.92,61.84c4.45-.69,7.11-7.38,6.36-12.24-.76-4.86-4.98-8.24-9.43-7.55-4.45.69-7.45,5.2-6.7,10.06s5.32,10.42,9.77,9.73Z"/>
        <g>
          <path class="cls-5" d="M70,108.09c-.87,4.31-2.75,8.39-5.99,11.71-8.19,8.37-18.97,12.77-26.02,14.91-.83.25-.56,1.5.3,1.41,22.2-2.29,41.87-15.02,54.54-35.9-2.78,1.36-5.61,2.61-8.47,3.75-4.66,1.73-9.45,3.15-14.36,4.12Z"/>
          <path class="cls-6" d="M82.01,97.79c-3.73,1.45-7.55,2.67-11.42,3.61.04,2.24-.14,4.49-.59,6.69,4.91-.98,9.7-2.4,14.36-4.12,2.86-1.14,5.69-2.39,8.47-3.75,1.94-3.19,3.71-6.57,5.3-10.14-5.14,3.01-10.53,5.64-16.12,7.71Z"/>
          <path class="cls-2" d="M126.05,62.21c-.22-1.86-.88-3.67-1.84-5.24-1.03-1.54-2.38-2.81-3.9-3.71-3.02-1.84-6.42-2.49-9.71-2.68,3.18.86,6.28,2.15,8.64,4.16,1.17,1.01,2.12,2.19,2.75,3.5.57,1.34.86,2.75.83,4.17-.01,2.86-1.19,5.72-2.78,8.3-1.6,2.59-3.54,5.05-5.79,7.24-4.45,4.42-9.55,8.29-15.05,11.51-.35.21-.71.4-1.07.61-5.14,3.01-10.53,5.64-16.12,7.71-3.73,1.45-7.55,2.67-11.42,3.61-2.28.56-4.58,1.02-6.89,1.37-6.16.93-12.61,1.1-18.14-.69-2.73-.93-5.04-2.52-6.34-4.78-1.28-2.27-1.42-5.26-.59-8.19.7-2.97,2.25-5.82,3.97-8.54,1.76-2.71,3.8-5.3,6.01-7.77-2.68,1.95-5.21,4.13-7.47,6.65-2.24,2.52-4.27,5.32-5.6,8.64-1.34,3.24-1.8,7.33-.24,11.07,1.59,3.75,5,6.27,8.35,7.72,3.41,1.53,6.97,2.1,10.47,2.35,3.51.3,6.97.06,10.41-.25,1.84-.23,3.66-.53,5.47-.89,4.91-.98,9.7-2.4,14.36-4.12,2.86-1.14,5.69-2.39,8.47-3.75,9.43-4.63,18.22-10.67,25.21-18.79,2.24-2.61,4.3-5.47,5.8-8.68,1.49-3.18,2.61-6.78,2.19-10.54Z"/>
        </g>
        <path class="cls-3" d="M100.24,21.65c-.45-.8-1.66-.2-1.33.65,6.53,16.64,2.62,28.34-2.56,35.68-5.21,7.39-13.98,11.13-22.99,10.27-20.47-1.95-34.67-17.59-40.76-25.75-.53-.71-1.61-.05-1.27.76,7.87,18.61,23.15,28.95,31.51,36.9,3.62,3.44,6.78,10.53,7.56,18.2,4.65-1.14,18.36-4.95,29.44-12.37,1.63-4.16,3.04-8.54,4.18-13.14,6.54-26.35.86-42.94-3.8-51.2Z"/>
      </g>
    </g>
  </g>
</svg>